<svg t="1753598922875" class="icon" viewBox="0 0 1024 1024" version="1.1" xmlns="http://www.w3.org/2000/svg" p-id="5589"
    width="200" height="200">
    <path
        d="M535.3128264045716 691.8772080421447c45.806716804504376-2.1316282072803006e-14 82.93396599769594 37.07428745269772 82.93396599769596 82.80511774063108 1.4210854715202004e-14 45.71343953132629-37.12724996566767 82.78772698402406-82.9339659976959 82.78772698402408-45.79960229873657 2.842170943040401e-14-82.9252710056305-37.07428745269772-82.92527100563053-82.78772698402398C452.38755617141726 728.9514954948426 489.513224878311 691.8772080421447 535.3128264045716 691.8772080421447z"
        fill="currentColor" p-id="5590"></path>
    <path
        d="M529.4624864292144 423.2571937656403c45.806716804504376-2.1316282072803006e-14 82.93317575454716 37.07270619392392 82.93317575454716 82.80353725433342 1.4210854715202004e-14 45.715020790100105-37.126458950042675 82.78851799964906-82.9331757545471 82.78851799964909-45.80829729080199 2.1316282072803006e-14-82.92527100563052-37.073497209548904-82.92527100563053-82.788517999649C446.53721542358403 460.3299007320403 483.65418913841245 423.2571937656403 529.4624864292144 423.2571937656403z"
        fill="currentColor" p-id="5591"></path>
    <path
        d="M529.4624864292143 166.30307869911212c45.806716804504376-2.1316282072803006e-14 82.93317575454714 37.07349720954889 82.93317575454718 82.80511774063106 2.842170943040401e-14 45.7142305469513-37.12645895004269 82.78772698402406-82.93317575454712 82.78772698402405-45.80829729080199 2.1316282072803006e-14-82.92527100563052-37.073497209548904-82.92527100563053-82.78772698402398C446.5372154235839 203.37657590866093 483.6541891384124 166.30307869911212 529.4624864292143 166.30307869911212z"
        fill="currentColor" p-id="5592"></path>
</svg>