<svg t="1753610389634" class="icon" viewBox="0 0 1024 1024" version="1.1" xmlns="http://www.w3.org/2000/svg"
    p-id="14346" width="200" height="200">
    <path
        d="M714.7 370.6c-7.4 0-14.8-2.8-20.5-8.5L512 179.9 329.8 362.1c-11.3 11.3-29.6 11.3-40.9 0-11.3-11.3-11.3-29.6 0-40.9L471 139c21.8-21.9 60.1-21.9 82 0l182.1 182.1c11.3 11.3 11.3 29.6 0 40.9-5.6 5.8-13 8.6-20.4 8.6z"
        p-id="14347" fill="currentColor"></path>
    <path d="M512 669.8c-16 0-29-13-29-29V177.6c0-16 13-29 29-29s29 13 29 29v463.3c0 15.9-13 28.9-29 28.9z"
        p-id="14348" fill="currentColor"></path>
    <path
        d="M782.2 901.4H241.8C162 901.4 97 836.4 97 756.6V640.8C97 561 162 496 241.8 496c16 0 29 13 29 29s-13 29-29 29c-47.9 0-86.9 39-86.9 86.9v115.8c0 47.9 39 86.9 86.9 86.9h540.5c47.9 0 86.9-39 86.9-86.9V640.8c0-47.9-39-86.9-86.9-86.9-16 0-29-13-29-29s13-29 29-29c79.8 0 144.8 65 144.8 144.8v115.8c-0.1 79.9-65.1 144.9-144.9 144.9z"
        p-id="14349" fill="currentColor"></path>
</svg>