<svg t="1753599193779" class="icon" viewBox="0 0 1024 1024" version="1.1" xmlns="http://www.w3.org/2000/svg" p-id="6649"
    width="200" height="200">
    <path
        d="M682.688 37.312c197.12 0 304 106.88 304 304v341.376c0 197.12-106.88 304-304 304H128c-49.92 0-90.688-40.768-90.688-90.688V341.312c0-197.12 106.88-304 304-304h341.376z m0 96H341.312c-144.128 0-208 63.872-208 208v549.312h549.376c139.328 0 203.648-59.584 207.744-193.792l0.256-14.144V341.312c0-144.128-63.872-208-208-208zM512 314.688a48 48 0 0 1 48 48v101.248l101.312 0.064a48 48 0 1 1 0 96H560l0.064 101.312a48 48 0 1 1-96 0V560l-101.312 0.064a48 48 0 1 1 0-96H464l0.064-101.312a48 48 0 0 1 48-48z"
        fill="currentColor"
        p-id="6650"></path>
</svg>