<svg t="1753924114074" class="icon" viewBox="0 0 1024 1024" version="1.1" xmlns="http://www.w3.org/2000/svg" p-id="8348"
    width="200" height="200">
    <path
        d="M961.5872 476.2112c-7.2192-11.7248-149.6576-271.36-425.5232-271.36s-418.304 259.6352-425.5744 271.36a60.1088 60.1088 0 0 0 0 60.3136c7.2192 11.7248 149.6576 271.36 425.5232 271.36s418.3552-259.6864 425.5232-271.36a70.656 70.656 0 0 0 0-60.3136z m-425.5232 264.7552c-234.3936 0-360.6528-234.5984-360.6528-234.5984s126.2592-234.5472 360.6528-234.5472 360.6528 234.5984 360.6528 234.5984-126.2592 234.5472-360.6528 234.5472z"
        p-id="8349"
        fill="currentColor"
        ></path>
    <path
        d="M536.064 351.9488a154.4704 154.4704 0 1 0 150.5792 154.4192 152.9856 152.9856 0 0 0-150.5792-154.4192z m0 231.6288a77.2608 77.2608 0 1 1 75.264-77.2096 76.4928 76.4928 0 0 1-75.264 77.2096z"
        p-id="8350"
        fill="currentColor"
        ></path>
</svg>